# Exported from Figuro at https://www.figuro.io

mtllib newscene.mtl
o new model
v -290.5545437281842 358.214742660892 -881.6290269864583
v -290.5545437281842 358.214742660892 -18.03202058863394
v -290.5545437281842 218.45967740365074 -18.03202058863394
v -290.5545437281842 218.45967740365074 -881.6290269864583
# 4 vertices
vt -3.4438633866658526 2.399276338519109
vt -0.07043758042435133 2.399276338519109
vt -0.07043758042435133 1.8533581148580107
vt -3.4438633866658526 1.8533581148580107
# 4 uvs
vn -1 0 0
vn -1 0 0
vn -1 0 0
vn -1 0 0
# 4 normals
usemtl 352f91
f 4/4/4 3/3/3 2/2/2 1/1/1 
# 1 polygons
o new model
v -290.55454372818417 343.12191417628975 687.3783019109279
v -290.55454372818417 343.12191417628975 1204.315032135499
v -290.55454372818417 222.6943647310132 1204.315032135499
v -290.55454372818417 222.6943647310132 687.3783019109279
# 4 vertices
vt 2.685071491839562 2.3403199772511316
vt 4.704355594279293 2.3403199772511316
vt 4.704355594279293 1.8698998622305203
vt 2.685071491839562 1.8698998622305203
# 4 uvs
vn -0.9999999999999999 0 0
vn -0.9999999999999999 0 0
vn -0.9999999999999999 0 0
vn -0.9999999999999999 0 0
# 4 normals
usemtl 3f5275
f 8/8/8 7/7/7 6/6/6 5/5/5 
# 1 polygons
o new model
v -290.5545437281842 359.4128981981131 155.42972471823225
v -290.5545437281842 359.4128981981131 644.0361075816735
v -290.5545437281842 219.26837621280956 644.0361075816735
v -290.5545437281842 219.26837621280956 155.42972471823225
# 4 vertices
vt 0.6071473621805947 2.4039566335863793
vt 2.515766045240912 2.4039566335863793
vt 2.515766045240912 1.8565170945812874
vt 0.6071473621805947 1.8565170945812874
# 4 uvs
vn -1 0 0
vn -1 0 0
vn -1 0 0
vn -1 0 0
# 4 normals
usemtl 7653cf
f 12/12/12 11/11/11 10/10/10 9/9/9 
# 1 polygons
o new model
v -289.5545437281842 3.382268585730557 3799.562590278208
v 237.07279476126104 3.382268585730557 3799.562590278208
v 237.07279476126104 391.6982869889404 3799.562590278208
v -290.2212103948509 392.3649536556071 3800.229256944875
v 248.64504395874914 -7.715149703614236 1445.0977870464687
v 237.07279476126104 391.6982869889404 1456.3874144967301
v -306.77169350771334 -13.783945963114636 1439.0841777077114
v -292.1896603309579 394.4432568452052 1453.7271626901027
# 8 vertices
vt -1.1336766031048864 2.5326756002172153
vt 0.9260656045361759 2.5300714335505488
vt 0.9260656045361759 1.01321198666301
vt -1.1310724364382196 1.01321198666301
vt -14.84204136827425 2.5300714335505488
vt -5.689013337877852 2.5300714335505488
vt -5.6449132306502685 0.9698626964702569
vt -14.84204136827425 1.01321198666301
vt -0.9260656045361759 2.5300714335505488
vt 1.1413658606678043 2.540793972051583
vt 1.1983269277645052 0.9461564610815835
vt -0.9712697029638638 0.9698626964702569
vt 5.6786217292582135 2.540793972051583
vt 14.844645534940918 2.5326756002172153
vt 14.84204136827425 1.01321198666301
vt 5.621422569170748 0.9461564610815835
vt -1.1310724364382196 15.84204136827425
vt 0.9260656045361759 15.84204136827425
vt 0.9712697029638638 6.6449132306502685
vt -1.1983269277645052 6.621422569170748
vt -1.1413658606678043 -4.6786217292582135
vt 0.9260656045361759 -4.689013337877852
vt 0.9260656045361759 -13.84204136827425
vt -1.1336766031048864 -13.844645534940918
# 24 uvs
vn -0.3312112565463053 -0.3278161817737557 0.3366688944302722
vn 0.33536562122516306 -0.3287231493195173 0.3361385217215899
vn 0.33458328396305265 0.3379305921169966 0.3342899229132337
vn -0.33199359380841564 0.3388375596627582 0.3348202956219159
vn 0.33778631481321164 -0.3177500496182741 -0.33034618977819097
vn 0.3370039775511012 0.3489036918182398 -0.3321947885865472
vn -0.3287905629582567 -0.3168430820725125 -0.32981581706950863
vn -0.32957290022036706 0.3498106593640014 -0.33166441587786494
# 8 normals
usemtl b4a7d6
f 13/16/13 14/15/14 15/14/15 16/13/16 
f 14/20/14 17/19/17 18/18/18 15/17/15 
f 17/24/17 19/23/19 20/22/20 18/21/18 
f 19/28/19 13/27/13 16/26/16 20/25/20 
f 19/32/19 17/31/17 14/30/14 13/29/13 
f 16/36/16 15/35/15 18/34/18 20/33/20 
# 6 polygons
o cube44
v -282.53803187625317 255.55415387859375 3790.388953879781
v 215.28637435053452 254.92474612079783 3789.759546121985
v 215.4481703779487 254.70532120073983 4045.75940095544
v -282.376235848839 255.33472895853575 4046.388808713236
v 214.95328582575468 -8.303217508252828 3789.534136296992
v 215.11508185316887 -8.52264242831086 4045.533991130447
v -282.871120401033 -7.67380975045694 3790.163544054788
v -282.7093243736188 -7.893234670514914 4046.163398888243
# 8 vertices
vt -1.103664187016614 -13.806206851092895
vt 0.8409623998067755 -13.803748227039003
vt 0.8415944155388622 -14.803747659982188
vt -1.1030321712845272 -14.806206284036078
vt -14.803748227039003 1.9957997895343667
vt -14.802867719910125 0.9675655566083874
vt -15.802867152853308 0.9667084280144107
vt -15.803747659982188 1.99494266094039
vt 0.8396612727568542 15.802867719910125
vt -1.1049653140665352 15.805326343964015
vt -1.1043332983344485 16.8053257769072
vt 0.8402932884889409 16.80286715285331
vt 14.805326343964015 0.9700241806622776
vt 14.806206851092895 1.9982584135882568
vt 15.806206284036078 1.9974012849942802
vt 15.8053257769072 0.9691670520683011
vt 1.1049653140665352 0.9700241806622776
vt -0.8396612727568542 0.9675655566083874
vt -0.8409623998067755 1.9957997895343667
vt 1.103664187016614 1.9982584135882568
vt -1.1030321712845272 1.9974012849942802
vt 0.8415944155388622 1.99494266094039
vt 0.8402932884889409 0.9667084280144107
vt -1.1043332983344485 0.9691670520683011
# 24 uvs
vn -0.33333227743389304 0.3340405385377998 -0.33283646872450273
vn 0.3333337223404542 0.3331973011650992 -0.3332585351266067
vn 0.3341758760936116 0.3326253499516539 0.33340735427625595
vn -0.33249012368073566 0.3334685873243544 0.3338294206783599
vn 0.3324901236807354 -0.33346858732435436 -0.3338294206783599
vn 0.33333227743389277 -0.33404053853779975 0.3328364687245028
vn -0.33417587609361193 -0.3326253499516539 -0.3334073542762559
vn -0.3333337223404545 -0.33319730116509916 0.33325853512660675
# 8 normals
usemtl d5a6bd
f 24/40/24 23/39/23 22/38/22 21/37/21 
f 23/44/23 26/43/26 25/42/25 22/41/22 
f 26/48/26 28/47/28 27/46/27 25/45/25 
f 28/52/28 24/51/24 21/50/21 27/49/27 
f 21/56/21 22/55/22 25/54/25 27/53/27 
f 28/60/28 26/59/26 23/58/23 24/57/24 
# 6 polygons
o cube45
v -132.33295319412656 375.0842235087712 3664.8900252867193
v 109.21168453358831 374.7788345665292 3664.584636344477
v 109.37348056100248 374.55940964647124 3920.5844911779323
v -132.1711571667124 374.8647985887132 3920.889880120174
v 109.0370420129698 236.76508853357495 3664.466451126193
v 109.19883804038398 236.54566361351698 3920.4663059596483
v -132.5075957147451 237.07047747581692 3664.7718400684353
v -132.3457996873309 236.85105255575894 3920.7716949018904
# 8 vertices
vt -0.5169255984145569 -13.315976661276247
vt 0.42660814270932934 -13.314783735720614
vt 0.42724015844141594 -14.314783168663798
vt -0.5162935826824703 -14.31597609421943
vt -14.314783735720614 2.4639798225255047
vt -14.314322074711692 1.9248636270842772
vt -15.314321507654876 1.9240064984903007
vt -15.314783168663798 2.4631226939315285
vt 0.4259259453631633 15.314322074711692
vt -0.517607795760723 15.315515000267325
vt -0.5169757800286363 16.31551443321051
vt 0.4265579610952499 16.314321507654874
vt 14.315515000267325 1.9260565526399098
vt 14.315976661276247 2.4651727480811374
vt 15.31597609421943 2.464315619487161
vt 15.31551443321051 1.9251994240459334
vt 0.517607795760723 1.9260565526399098
vt -0.4259259453631633 1.9248636270842772
vt -0.42660814270932934 2.4639798225255047
vt 0.5169255984145569 2.4651727480811374
vt -0.5162935826824703 2.464315619487161
vt 0.42724015844141594 2.4631226939315285
vt 0.4265579610952499 1.9240064984903007
vt -0.5169757800286363 1.9251994240459334
# 24 uvs
vn -0.33333227743389193 0.3340405385378002 -0.3328364687245029
vn 0.3333337223404553 0.33319730116509955 -0.3332585351266068
vn 0.3341758760936118 0.3326253499516541 0.33340735427625584
vn -0.3324901236807353 0.33346858732435475 0.3338294206783598
vn 0.3324901236807364 -0.3334685873243541 -0.33382942067835986
vn 0.333332277433893 -0.3340405385377995 0.3328364687245028
vn -0.3341758760936108 -0.33262534995165344 -0.33340735427625595
vn -0.3333337223404542 -0.3331973011650988 0.33325853512660675
# 8 normals
usemtl 1cac78
f 32/64/32 31/63/31 30/62/30 29/61/29 
f 31/68/31 34/67/34 33/66/33 30/65/30 
f 34/72/34 36/71/36 35/70/35 33/69/33 
f 36/76/36 32/75/32 29/74/29 35/73/35 
f 29/80/29 30/79/30 33/78/33 35/77/35 
f 36/84/36 34/83/34 31/82/31 32/81/32 
# 6 polygons
o new model
v -289.5545437281842 3.382268585730557 -995.5831906562512
v 237.07279476126104 3.382268585730557 -995.5831906562512
v 237.07279476126104 391.6982869889404 -995.5831906562512
v -290.2212103948509 392.3649536556071 -996.2498573229177
v 248.64504395874914 -7.715149703614236 1358.8816125754888
v 237.07279476126104 391.6982869889404 1347.591985125227
v -306.77169350771334 -13.783945963114636 1364.8952219142461
v -292.1896603309579 394.4432568452052 1350.2522369318544
# 8 vertices
vt 1.1310724364382196 1.01321198666301
vt -0.9260656045361759 1.01321198666301
vt -0.9260656045361759 2.5300714335505488
vt 1.1336766031048864 2.5326756002172153
vt 3.888996838500981 1.01321198666301
vt -5.308131299123003 0.9698626964702569
vt -5.264031191895418 2.5300714335505488
vt 3.888996838500981 2.5300714335505488
vt 0.9712697029638638 0.9698626964702569
vt -1.1983269277645052 0.9461564610815835
vt -1.1413658606678043 2.540793972051583
vt 0.9260656045361759 2.5300714335505488
vt 5.331621960602524 0.9461564610815835
vt -3.888996838500981 1.01321198666301
vt -3.8916010051676473 2.5326756002172153
vt 5.274422800515056 2.540793972051583
vt -1.1983269277645052 6.331621960602524
vt 0.9712697029638638 6.308131299123003
vt 0.9260656045361759 -2.888996838500981
vt -1.1310724364382196 -2.888996838500981
vt -1.1336766031048864 4.891601005167647
vt 0.9260656045361759 4.888996838500981
vt 0.9260656045361759 -4.264031191895418
vt -1.1413658606678043 -4.274422800515056
# 24 uvs
vn -0.3312112565463055 -0.32781618177375554 -0.3366688944302721
vn 0.3353656212251627 -0.3287231493195171 -0.3361385217215898
vn 0.3345832839630523 0.33793059211699683 -0.3342899229132336
vn -0.3319935938084159 0.33883755966275836 -0.3348202956219158
vn 0.3377863148132115 -0.3177500496182737 0.33034618977819097
vn 0.3370039775511011 0.34890369181824027 0.3321947885865472
vn -0.32879056295825676 -0.31684308207251216 0.32981581706950863
vn -0.32957290022036717 0.3498106593640018 0.33166441587786494
# 8 normals
usemtl b4a7d6
f 40/88/40 39/87/39 38/86/38 37/85/37 
f 39/92/39 42/91/42 41/90/41 38/89/38 
f 42/96/42 44/95/44 43/94/43 41/93/41 
f 44/100/44 40/99/40 37/98/37 43/97/43 
f 37/104/37 38/103/38 41/102/41 43/101/43 
f 44/108/44 42/107/42 39/106/39 40/105/40 
# 6 polygons
o cube46
v -103.83146184113367 330.0549718781175 3599.400344316807
v -103.61793330617287 329.8295269596874 3853.938265387634
v -102.791523297364 585.8281680776316 3854.0513682761907
v -103.00505183232481 586.0536129960616 3599.5134472053637
v 72.64038281203783 329.26059872060046 3853.7899006888224
v 73.46679282084669 585.2592398385447 3853.903003577379
v 72.42685427707703 329.4860436390305 3599.2519796179954
v 73.25326428588589 585.4846847569746 3599.365082506552
# 8 vertices
vt 14.060599403145952 3.2892719257658656
vt 15.05488815732887 3.2883912815532486
vt 15.054446349170446 2.288396589686279
vt 14.060157594987528 2.2892772338988965
vt -0.4015293878803281 3.2883912815532486
vt 0.2869796594564324 3.286168905619315
vt 0.28375149535952277 2.2861742137523455
vt -0.4047575519772378 2.288396589686279
vt -15.054308607724137 3.286168905619315
vt -14.060019853541219 3.287049549831932
vt -14.059578045382795 2.287054857964963
vt -15.053866799565712 2.2861742137523455
vt -0.28614556361674176 3.287049549831932
vt 0.4023634837200188 3.2892719257658656
vt 0.4055916478169284 2.2892772338988965
vt -0.28291739951983214 2.287054857964963
vt -0.4055916478169284 15.060157594987528
vt -0.4047575519772378 16.054446349170448
vt 0.28375149535952277 16.05386679956571
vt 0.28291739951983214 15.059578045382795
vt 0.28614556361674176 -13.060019853541219
vt 0.2869796594564324 -14.054308607724137
vt -0.4015293878803281 -14.05488815732887
vt -0.4023634837200188 -13.060599403145952
# 24 uvs
vn -0.33468776050226245 -0.3321073613568873 -0.333346932118274
vn -0.33412755344042294 -0.3324037100094613 0.33331943330746766
vn -0.33197519709897755 0.3342592222783216 0.3339080928685392
vn -0.332535404160817 0.3345555709308956 -0.3327582725572025
vn 0.3325354041608161 -0.3345555709308956 0.3327582725572022
vn 0.33468776050226157 0.33210736135688734 0.33334693211827365
vn 0.33197519709897666 -0.3342592222783216 -0.33390809286853945
vn 0.33412755344042205 0.3324037100094613 -0.33331943330746805
# 8 normals
usemtl 5f9ea0
f 45/112/45 46/111/46 47/110/47 48/109/48 
f 46/116/46 49/115/49 50/114/50 47/113/47 
f 49/120/49 51/119/51 52/118/52 50/117/50 
f 51/124/51 45/123/45 48/122/48 52/121/52 
f 51/128/51 49/127/49 46/126/46 45/125/45 
f 48/132/48 47/131/47 50/130/50 52/129/52 
# 6 polygons